# xmcd
#
# Track frame offsets: 
#        150
#        17055
#        29450
#
# Disc length: 544 seconds
#
# Revision: 0
# Processed by: cddbd v1.5.2PL0 Copyright (c) Steve Scherf et al.
# Submitted via: ExactAudioCopy v1.3
#
DISCID=1b021e03
DTITLE=Guilher e Gustavo - Orgulho de ser sertanejo
DYEAR=1900
DGENRE=Country
TTITLE0=Foi tudo culpa do amor
TTITLE1=Lencinho de inhanduti
TTITLE2=O gamadão
EXTD=
EXTT0=
EXTT1=
EXTT2=
PLAYORDER=
